<svg xmlns="http://www.w3.org/2000/svg" viewBox="0 0 50 40"><g fill="none" fill-rule="evenodd"><path fill="#17A7DB" d="M5 10A5 5 0 1 0 5 0a5 5 0 0 0 0 10zm40 0a5 5 0 1 0 0-10 5 5 0 0 0 0 10zM35 20a5 5 0 1 0 0-10 5 5 0 0 0 0 10zM25 30a5 5 0 1 0 0-10 5 5 0 0 0 0 10zM15 40a5 5 0 1 0 0-10 5 5 0 0 0 0 10z"/><path fill="#FEC91B" d="M15 10a5 5 0 1 0 0-10 5 5 0 0 0 0 10zM5 20a5 5 0 1 0 0-10 5 5 0 0 0 0 10zm40 0a5 5 0 1 0 0-10 5 5 0 0 0 0 10zM35 30a5 5 0 1 0 0-10 5 5 0 0 0 0 10zM25 40a5 5 0 1 0 0-10 5 5 0 0 0 0 10z"/><path fill="#DD0E78" d="M25 10a5 5 0 1 0 0-10 5 5 0 0 0 0 10zM15 20a5 5 0 1 0 0-10 5 5 0 0 0 0 10zM5 30a5 5 0 1 0 0-10 5 5 0 0 0 0 10zm40 0a5 5 0 1 0 0-10 5 5 0 0 0 0 10zM35 40a5 5 0 1 0 0-10 5 5 0 0 0 0 10z"/><path fill="#C6CB0C" d="M35 10a5 5 0 1 0 0-10 5 5 0 0 0 0 10zM25 20a5 5 0 1 0 0-10 5 5 0 0 0 0 10zM15 30a5 5 0 1 0 0-10 5 5 0 0 0 0 10zM5 40a5 5 0 1 0 0-10 5 5 0 0 0 0 10zm40 0a5 5 0 1 0 0-10 5 5 0 0 0 0 10z"/></g></svg>
